<svg xmlns="http://www.w3.org/2000/svg" width="1200" height="720" viewBox="0 0 1200 720">
<defs>
  <linearGradient id="bg" x1="0" y1="0" x2="1" y2="1">
    <stop stop-color="#030604"/><stop offset=".55" stop-color="#07100a"/><stop offset="1" stop-color="#020403"/>
  </linearGradient>
  <linearGradient id="card" x1="0" y1="0" x2="1" y2="1">
    <stop stop-color="#0b1710"/><stop offset="1" stop-color="#050a07"/>
  </linearGradient>
  <filter id="glow" x="-100%" y="-100%" width="300%" height="300%">
    <feGaussianBlur stdDeviation="3" result="b"/>
    <feMerge><feMergeNode in="b"/><feMergeNode in="SourceGraphic"/></feMerge>
  </filter>
  <pattern id="grid" width="32" height="32" patternUnits="userSpaceOnUse">
    <path d="M32 0H0V32" fill="none" stroke="#00ff41" stroke-opacity=".045"/>
  </pattern>
  <style>
    text{font-family:"Fira Code","JetBrains Mono",monospace}
    .flow{stroke:#00ff41;stroke-width:1.2;stroke-dasharray:5 13;animation:flow 1.5s linear infinite}
    .scan{animation:scan 4.5s ease-in-out infinite}
    .pulse{animation:pulse 2.5s ease-in-out infinite}
    .blink{animation:blink 1.2s steps(2,end) infinite}
    .bar{animation:bar 2.8s ease-in-out infinite}
    @keyframes flow{to{stroke-dashoffset:-36}}
    @keyframes scan{0%,100%{opacity:.02;transform:translateY(-12px)}50%{opacity:.12;transform:translateY(12px)}}
    @keyframes pulse{0%,100%{opacity:.65}50%{opacity:1}}
    @keyframes blink{50%{opacity:.15}}
    @keyframes bar{0%,100%{width:25}50%{width:95}}
  </style>
</defs>

<rect width="1200" height="720" rx="30" fill="url(#bg)" stroke="#15351e"/>
<rect x="1" y="1" width="1198" height="718" rx="29" fill="url(#grid)"/>

<!-- Header -->
<text x="55" y="55" fill="#00ff41" font-size="13" letter-spacing="3">root@sankar:~$ ./projects --showcase</text>
<text x="1145" y="55" text-anchor="end" fill="#55705d" font-size="10" letter-spacing="2">PROJECT_INDEX // 04</text>
<line x1="55" y1="78" x2="1145" y2="78" stroke="#163b21"/>

<!-- Project cards -->
<g transform="translate(55 110)">
  <rect width="525" height="245" rx="20" fill="url(#card)" stroke="#164626"/>
  <text x="25" y="34" fill="#00ff41" font-size="10" letter-spacing="2">PROJECT_01</text>
  <text x="25" y="72" fill="#effff2" font-size="23" font-weight="700">E-Commerce Website</text>
  <text x="25" y="103" fill="#6f8b76" font-size="11">FRONTEND APPLICATION</text>
  <rect x="25" y="125" width="475" height="1" fill="#17351f"/>
  <text x="25" y="153" fill="#b9cdbd" font-size="12">HTML   ·   CSS   ·   JAVASCRIPT</text>
  <circle class="pulse" cx="30" cy="190" r="4" fill="#00ff41" filter="url(#glow)"/>
  <text x="45" y="194" fill="#7fe994" font-size="11">LIVE</text>
  <text x="25" y="225" fill="#00ff41" font-size="11">↗ DEMO</text>
  <text x="425" y="225" fill="#00ff41" font-size="11" text-anchor="end">⌘ SOURCE</text>
</g>

<g transform="translate(620 110)">
  <rect width="525" height="245" rx="20" fill="url(#card)" stroke="#164626"/>
  <text x="25" y="34" fill="#00ff41" font-size="10" letter-spacing="2">PROJECT_02</text>
  <text x="25" y="72" fill="#effff2" font-size="23" font-weight="700">Bus Ticket Booking</text>
  <text x="25" y="103" fill="#6f8b76" font-size="11">FULL STACK WEB SYSTEM</text>
  <rect x="25" y="125" width="475" height="1" fill="#17351f"/>
  <text x="25" y="153" fill="#b9cdbd" font-size="12">DJANGO   ·   MYSQL   ·   HTML/CSS</text>
  <circle class="pulse" cx="30" cy="190" r="4" fill="#00ff41" filter="url(#glow)"/>
  <text x="45" y="194" fill="#7fe994" font-size="11">COMPLETE</text>
  <text x="25" y="225" fill="#00ff41" font-size="11">⌘ SOURCE</text>
</g>

<g transform="translate(55 385)">
  <rect width="525" height="245" rx="20" fill="url(#card)" stroke="#164626"/>
  <text x="25" y="34" fill="#00ff41" font-size="10" letter-spacing="2">PROJECT_03</text>
  <text x="25" y="72" fill="#effff2" font-size="23" font-weight="700">AI Skin Disease Detection</text>
  <text x="25" y="103" fill="#6f8b76" font-size="11">AI / WEB APPLICATION</text>
  <rect x="25" y="125" width="475" height="1" fill="#17351f"/>
  <text x="25" y="153" fill="#b9cdbd" font-size="12">API   ·   HTML   ·   CSS   ·   JAVASCRIPT</text>
  <circle class="pulse" cx="30" cy="190" r="4" fill="#00ff41" filter="url(#glow)"/>
  <text x="45" y="194" fill="#7fe994" font-size="11">LIVE</text>
  <text x="25" y="225" fill="#00ff41" font-size="11">↗ DEMO</text>
  <text x="425" y="225" fill="#00ff41" font-size="11" text-anchor="end">⌘ SOURCE</text>
</g>

<g transform="translate(620 385)">
  <rect width="525" height="245" rx="20" fill="url(#card)" stroke="#164626"/>
  <text x="25" y="34" fill="#00ff41" font-size="10" letter-spacing="2">PROJECT_04</text>
  <text x="25" y="72" fill="#effff2" font-size="23" font-weight="700">Sankar Portfolio</text>
  <text x="25" y="103" fill="#6f8b76" font-size="11">PERSONAL DEVELOPER PORTFOLIO</text>
  <rect x="25" y="125" width="475" height="1" fill="#17351f"/>
  <text x="25" y="153" fill="#b9cdbd" font-size="12">HTML   ·   CSS   ·   JAVASCRIPT</text>
  <circle class="pulse" cx="30" cy="190" r="4" fill="#00ff41" filter="url(#glow)"/>
  <text x="45" y="194" fill="#7fe994" font-size="11">ONLINE</text>
  <text x="25" y="225" fill="#00ff41" font-size="11">↗ OPEN PORTFOLIO</text>
</g>

<!-- Decorative network -->
<path class="flow" d="M580 235H620M580 510H620" fill="none"/>
<circle class="blink" cx="600" cy="235" r="2.5" fill="#00ff41"/>
<circle class="blink" cx="600" cy="510" r="2.5" fill="#00ff41"/>

<!-- Footer -->
<rect x="55" y="665" width="1090" height="1" fill="#163b21"/>
<text x="55" y="692" fill="#4e6c56" font-size="10">SYSTEM STATUS</text>
<circle class="pulse" cx="148" cy="688" r="4" fill="#00ff41" filter="url(#glow)"/>
<text x="160" y="692" fill="#7fe994" font-size="10">4 PROJECTS INDEXED</text>
<text x="1145" y="692" text-anchor="end" fill="#4e6c56" font-size="10">CODE · BUILD · DEPLOY · REPEAT</text>
</svg>